<svg width="358" height="358" viewBox="0 0 358 358" fill="none" xmlns="http://www.w3.org/2000/svg">
<path d="M163.241 358H194.758C203.665 358 210.004 352.689 212.058 343.954L220.967 306.269C227.646 304.043 234.155 301.473 239.809 298.731L272.867 318.945C280.234 323.57 288.627 322.884 294.792 316.717L316.889 294.792C323.056 288.627 323.912 279.72 318.945 272.353L298.731 239.637C301.645 233.641 304.215 227.476 306.098 221.309L344.124 212.23C352.861 210.174 358 203.837 358 194.93V163.926C358 155.19 352.861 148.852 344.124 146.797L306.44 137.718C304.215 130.695 301.473 124.358 299.075 119.048L319.287 85.8171C323.912 78.2802 323.57 70.2296 317.231 63.8918L294.792 41.7951C288.455 35.9712 280.747 34.6009 273.381 39.2258L239.809 59.952C234.327 57.04 227.988 54.4707 220.967 52.244L212.058 14.0459C210.004 5.31003 203.665 0 194.758 0H163.241C154.334 0 147.996 5.31003 145.769 14.0459L136.862 51.9012C130.182 54.1282 123.672 56.6975 117.849 59.7807L84.618 39.2258C77.2525 34.6009 69.2017 35.6286 63.0353 41.7951L40.7674 63.8918C34.4296 70.2296 33.9157 78.2802 38.7119 85.8171L58.753 119.048C56.5263 124.358 53.7856 130.695 51.5587 137.718L13.8746 146.797C5.13875 148.852 0 155.19 0 163.926V194.93C0 203.837 5.13875 210.174 13.8746 212.23L51.9012 221.309C53.7856 227.476 56.3549 233.641 59.0956 239.637L39.0544 272.353C33.9157 279.72 34.9435 288.627 41.11 294.792L63.0353 316.717C69.2017 322.884 77.7663 323.57 85.1319 318.945L118.02 298.731C123.844 301.473 130.182 304.043 136.862 306.269L145.769 343.954C147.996 352.689 154.334 358 163.241 358ZM179 239.465C145.598 239.465 118.534 212.402 118.534 179C118.534 145.598 145.598 118.534 179 118.534C212.402 118.534 239.465 145.598 239.465 179C239.465 212.402 212.402 239.465 179 239.465Z" fill="#F78C2E" fill-opacity="0.85"/>
</svg>
