<svg width="657" height="596" viewBox="0 0 657 596" fill="none" xmlns="http://www.w3.org/2000/svg">
<path d="M401.177 42.9424L644.198 466.725C652.026 480.517 656.414 495.875 656.414 510.608C656.414 558.564 624.155 595.553 570.914 595.553H85.4965C32.2569 595.553 0 558.564 0 510.608C0 495.875 3.7581 480.831 12.2138 466.725L255.236 42.9424C271.208 14.4186 299.394 0 328.207 0C357.018 0 384.892 14.4186 401.177 42.9424ZM293.444 457.635C293.444 476.129 309.729 491.173 328.518 491.173C346.996 491.173 363.281 476.444 363.281 457.635C363.281 438.514 347.31 423.782 328.518 423.782C309.416 423.782 293.444 438.829 293.444 457.635ZM298.768 189.636L302.839 360.152C303.152 376.766 312.234 386.167 328.518 386.167C343.866 386.167 352.948 377.077 353.259 360.152L357.957 189.95C358.271 173.337 345.117 161.113 328.207 161.113C310.668 161.113 298.454 173.023 298.768 189.636Z" fill="#FF0000" fill-opacity="0.85"/>
</svg>
